<?xml version="1.0" standalone="no"?>
<!DOCTYPE svg PUBLIC "-//W3C//DTD SVG 20010904//EN"
 "http://www.w3.org/TR/2001/REC-SVG-20010904/DTD/svg10.dtd">
<svg version="1.0" xmlns="http://www.w3.org/2000/svg"
 width="800.12" height="157.16" viewBox="0 0 1122.000000 240.000000"
 preserveAspectRatio="xMidYMid meet">
<metadata>
Created by potrace 1.11, written by Peter Selinger 2001-2013
</metadata>
<g transform="translate(0.000000,240.000000) scale(0.100000,-0.100000)"
fill="#000000" stroke="none">
<path d="M1137 2384 c-101 -15 -268 -69 -359 -115 -222 -112 -438 -329 -551
-554 -37 -73 -82 -208 -103 -305 -25 -117 -25 -362 0 -478 82 -381 321 -691
662 -861 44 -21 102 -47 130 -57 49 -17 53 -17 78 -1 26 17 26 18 26 146 l0
128 -93 -5 c-172 -9 -259 39 -330 181 -36 71 -69 111 -141 170 -40 32 -30 57
21 57 56 -1 114 -32 159 -85 105 -127 126 -145 182 -161 56 -17 120 -14 180 7
25 8 32 18 37 49 4 21 19 58 34 83 l28 44 -81 15 c-167 33 -288 100 -362 200
-79 107 -108 223 -102 404 3 109 6 125 35 186 18 38 43 83 57 101 23 30 24 37
15 73 -13 46 -6 205 11 252 11 29 16 32 55 32 59 0 124 -25 159 -61 19 -20 35
-28 48 -24 10 4 33 -3 53 -15 35 -22 36 -22 128 -5 120 23 313 23 430 1 l89
-17 113 57 c91 46 126 59 174 62 l59 4 12 -38 c18 -60 24 -188 11 -240 -11
-43 -10 -48 14 -80 14 -19 40 -64 57 -101 28 -60 32 -80 36 -179 14 -353 -132
-545 -463 -610 l-84 -17 20 -28 c47 -66 53 -102 56 -339 3 -215 4 -226 24
-242 29 -24 38 -23 133 16 718 298 985 1160 560 1813 -69 107 -230 270 -334
340 -261 174 -577 245 -883 197z"/>
<path d="M3990 2240 c-290 -37 -489 -167 -609 -400 -128 -249 -172 -640 -111
-993 71 -416 288 -645 673 -714 140 -25 374 -22 506 6 120 25 236 68 304 111
l47 30 0 512 c0 282 -4 519 -8 526 -7 9 -86 12 -363 10 l-354 -3 0 -185 0
-185 143 -3 142 -3 0 -204 0 -204 -54 -6 c-30 -4 -110 -6 -178 -4 -116 4 -128
6 -190 37 -110 54 -176 148 -220 310 -29 110 -37 389 -14 521 38 218 133 349
295 406 119 42 363 39 535 -7 54 -14 89 -18 95 -13 5 6 27 85 49 177 37 159
38 168 21 183 -27 25 -145 63 -249 80 -115 18 -371 27 -460 15z"/>
<path d="M6742 2158 c-9 -9 -12 -245 -12 -1000 0 -966 0 -988 19 -998 12 -6
95 -10 201 -10 106 0 189 4 201 10 18 10 19 26 19 435 l0 425 290 0 290 0 0
-423 c0 -316 3 -426 12 -435 9 -9 68 -12 204 -12 162 0 195 3 208 16 14 14 16
118 16 993 0 767 -3 981 -13 994 -11 16 -33 17 -217 15 l-205 -3 -3 -372 -2
-373 -290 0 -290 0 0 363 c0 269 -3 366 -12 375 -17 17 -399 17 -416 0z"/>
<path d="M9837 2164 c-4 -4 -7 -453 -7 -999 0 -757 3 -994 12 -1003 18 -18
282 -17 296 1 6 7 14 31 18 54 l6 41 43 -29 c108 -73 241 -109 399 -109 177 0
284 38 370 130 119 127 175 363 163 690 -6 174 -26 273 -79 380 -59 121 -175
211 -306 239 -126 26 -303 6 -421 -49 -35 -17 -65 -30 -67 -30 -2 0 -5 154 -6
343 l-3 342 -206 3 c-113 1 -208 -1 -212 -4z m751 -971 c78 -37 113 -126 119
-308 9 -219 -23 -346 -97 -390 -53 -31 -203 -28 -285 6 l-60 24 -3 317 -2 316
57 22 c110 42 201 46 271 13z"/>
<path d="M5167 2116 c-181 -50 -237 -283 -97 -409 103 -93 227 -90 326 8 59
58 80 117 71 195 -18 149 -157 245 -300 206z"/>
<path d="M5810 1721 l0 -200 -37 -10 c-21 -5 -67 -17 -103 -26 -36 -9 -71 -21
-77 -27 -14 -11 -19 -241 -7 -272 5 -13 25 -16 114 -16 l109 0 3 -362 c4 -351
5 -365 27 -427 48 -129 153 -215 302 -247 86 -19 273 -14 354 9 l50 13 3 154
c2 114 -1 155 -10 161 -7 4 -40 5 -74 2 -88 -8 -156 11 -194 53 l-30 35 0 304
0 305 149 0 c127 0 150 2 155 16 12 31 7 319 -6 332 -8 8 -57 12 -155 12
l-143 0 -2 193 -3 192 -212 3 -213 2 0 -199z"/>
<path d="M5017 1524 c-4 -4 -7 -310 -7 -681 l0 -673 26 -10 c39 -15 366 -13
387 3 16 11 17 61 15 687 l-3 675 -206 3 c-113 1 -208 -1 -212 -4z"/>
<path d="M8382 1518 c-19 -19 -17 -990 2 -1079 18 -85 47 -143 100 -197 70
-74 147 -105 302 -122 155 -18 300 9 461 86 39 19 74 34 77 34 3 0 6 -12 6
-26 0 -14 5 -34 10 -45 10 -17 22 -19 140 -19 104 0 132 3 144 16 14 14 16 88
16 670 0 433 -4 662 -10 675 -10 18 -23 19 -208 19 -141 0 -201 -3 -210 -12
-9 -9 -12 -133 -12 -499 l0 -486 -61 -28 c-82 -37 -207 -45 -259 -18 -70 36
-70 33 -70 553 0 349 -3 469 -12 478 -17 17 -399 17 -416 0z"/>
<path d="M536 653 c-3 -3 -3 -10 0 -14 7 -12 34 -11 34 0 0 11 -26 22 -34 14z"/>
<path d="M586 596 c7 -19 38 -22 32 -3 -3 6 -12 13 -21 15 -12 2 -15 -1 -11
-12z"/>
<path d="M632 534 c2 -11 11 -20 22 -22 13 -3 17 1 14 14 -2 11 -11 20 -22 22
-13 3 -17 -1 -14 -14z"/>
<path d="M692 464 c2 -11 11 -20 22 -22 13 -3 17 1 14 14 -2 11 -11 20 -22 22
-13 3 -17 -1 -14 -14z"/>
<path d="M775 421 c-9 -16 3 -31 26 -31 14 0 19 6 17 17 -4 20 -33 29 -43 14z"/>
<path d="M970 405 c0 -11 7 -15 23 -13 12 2 22 8 22 13 0 6 -10 11 -22 13 -16
2 -23 -2 -23 -13z"/>
<path d="M877 403 c-14 -13 -6 -23 18 -23 16 0 25 6 25 15 0 15 -31 21 -43 8z"/>
</g>
</svg>
